<?xml version="1.0" standalone="no"?>
<!DOCTYPE svg PUBLIC "-//W3C//DTD SVG 20010904//EN"
 "http://www.w3.org/TR/2001/REC-SVG-20010904/DTD/svg10.dtd">
<svg version="1.0" xmlns="http://www.w3.org/2000/svg"
 width="96.000000pt" height="96.000000pt" viewBox="0 0 96.000000 96.000000"
 preserveAspectRatio="xMidYMid meet">
<metadata>
Created by potrace 1.14, written by Peter Selinger 2001-2017
</metadata>
<g transform="translate(0.000000,96.000000) scale(0.100000,-0.100000)"
fill="#000000" stroke="none">
<path d="M398 860 c-52 -28 -78 -52 -78 -72 0 -15 -4 -16 -31 -6 -70 24 -151
-35 -165 -120 -3 -23 -10 -39 -15 -37 -16 11 -78 -24 -92 -52 -15 -29 -14 -70
2 -86 5 -5 27 -11 50 -12 22 -2 53 -12 69 -24 36 -25 72 -27 114 -5 22 11 33
13 41 5 15 -15 70 -14 85 1 15 15 16 3 0 -21 -13 -21 -5 -50 14 -55 7 -2 37
-11 66 -21 32 -11 65 -15 86 -11 19 4 47 1 67 -7 42 -17 96 -12 130 13 17 12
31 15 40 9 8 -5 33 -9 56 -9 52 0 105 39 99 73 -3 12 -5 22 -7 22 -1 0 -3 20
-4 45 -2 32 -8 48 -23 58 -18 12 -20 21 -15 57 4 34 1 50 -15 73 -23 32 -70
56 -99 50 -13 -3 -24 8 -39 37 -12 24 -35 48 -56 60 -32 17 -43 18 -78 9 -35
-10 -42 -9 -53 6 -31 43 -91 51 -149 20z"/>
<path d="M309 388 c-6 -13 -27 -42 -45 -65 -49 -60 -42 -77 20 -53 14 5 26 6
26 2 0 -8 -29 -53 -40 -62 -22 -20 -59 -73 -55 -80 3 -5 20 -4 37 1 17 5 34 7
36 4 2 -2 -5 -19 -17 -38 -47 -77 -5 -54 64 35 59 75 66 93 35 85 -11 -3 -20
-3 -20 -1 0 2 15 27 33 56 55 87 55 90 -1 83 l-49 -6 5 31 c5 36 -12 40 -29 8z"/>
<path d="M500 267 c-25 -34 -47 -66 -49 -71 -3 -9 28 -3 65 11 11 4 -2 -17
-29 -52 -33 -40 -45 -61 -38 -68 7 -7 16 -6 28 4 159 132 193 163 193 175 0
11 -12 13 -55 9 -54 -6 -54 -6 -52 21 3 45 -16 36 -63 -29z"/>
</g>
</svg>
